<?xml version="1.0" encoding="utf-8"?>
<!-- Generator: Adobe Illustrator 21.0.2, SVG Export Plug-In . SVG Version: 6.00 Build 0)  -->
<svg version="1.1" id="Livello_1" xmlns="http://www.w3.org/2000/svg" xmlns:xlink="http://www.w3.org/1999/xlink" x="0px" y="0px"
	 viewBox="0 0 575.6 186.1" style="enable-background:new 0 0 575.6 186.1;" xml:space="preserve">
<style type="text/css">
	.st0{fill:#FFFFFF;}
</style>
<g>
	<path class="st0" d="M115.3,13.5c24.3,0,48.4-0.1,72.4,0.2c3.5,0,7.2,1.8,10.3,3.6c15.4,9,25.1,31.5,21.2,48.9
		c-2.6,11.7-10.4,18.8-21.8,23.3c2.2,0.9,3.8,1.6,5.4,2.3c10,4.5,16.2,11.9,18,22.8c2.2,13.8,0.6,26.9-7.1,38.8
		c-6.9,10.6-16.4,16.7-29.5,16.3c-10.3-0.3-20.7-0.1-31.1,0c-2.8,0-4.3-0.5-5-3.7c-10.9-50.3-22-100.6-33-150.9
		C115,14.8,115.2,14.4,115.3,13.5z M157.4,136c7.5-0.2,14.7,0,19-7.1c3.5-5.8,3-11.6-1-17.1c-4.6-6.3-11-5.4-18-4.7
		C157.4,116.6,157.4,125.9,157.4,136z M157.4,73.5c6.8,1,12.7,0.1,16.6-6c3.1-4.8,3.1-9.8,0.1-14.6c-3.9-6.1-9.8-7.2-16.7-6.1
		C157.4,55.7,157.4,64.5,157.4,73.5z"/>
	<path class="st0" d="M17.4,13.6c15.3,0,30,0,45.2,0c-4.5,19.2-9,38-13.5,56.9c-7.3,30.9-14.7,61.7-22.1,92.6c-1.7,7-1.7,7-9.7,6.2
		C17.4,117.5,17.4,65.8,17.4,13.6z"/>
	<path class="st0" d="M102.4,151.4c0.9,5.9,1.7,11.7,2.6,17.9c-12,0-23.6,0-35.7,0c1-6,1.9-11.8,2.9-17.9
		C82.2,151.4,92.1,151.4,102.4,151.4z"/>
	<path class="st0" d="M88.6,58.2c0.7,5,1.5,10,2.2,15c2,12.8,3.9,25.5,6,38.3c0.7,4.1-0.3,5.9-4.7,5.6c-4.4-0.3-8.8-0.1-14.4-0.1
		c3.4-20.3,6.5-39.5,9.7-58.8C88,58.2,88.3,58.2,88.6,58.2z"/>
	<path class="st0" d="M157.4,136c0-10.1,0-19.4,0-28.9c7-0.7,13.4-1.6,18,4.7c4,5.5,4.4,11.3,1,17.1C172.2,136,165,135.8,157.4,136z
		"/>
	<path class="st0" d="M157.4,73.5c0-9,0-17.8,0-26.7c7-1.1,12.8-0.1,16.7,6.1c3,4.8,3,9.9-0.1,14.6
		C170.1,73.6,164.2,74.5,157.4,73.5z"/>
</g>
<g>
	<path class="st0" d="M293.5,88l-2.3-12.1c0-0.1-0.1-0.2-0.2-0.3c-0.1-0.1-0.2-0.1-0.4-0.1h-17.1c-0.1,0-0.3,0-0.4,0.1
		c-0.1,0.1-0.2,0.2-0.2,0.3L270.9,88c-0.1,0.6-0.5,0.9-1.2,0.9h-8c-0.4,0-0.6-0.1-0.8-0.3c-0.2-0.2-0.2-0.5-0.2-0.8l15.6-71.3
		c0.1-0.6,0.5-0.9,1.2-0.9h9.3c0.7,0,1.1,0.3,1.2,0.9l15.7,71.3V88c0,0.6-0.3,0.9-0.9,0.9h-8.2C294.1,88.9,293.7,88.6,293.5,88z
		 M275.2,67.6h13.9c0.2,0,0.3-0.1,0.3-0.4l-7.1-37.2c-0.1-0.1-0.1-0.2-0.2-0.2c-0.1,0-0.1,0.1-0.2,0.2l-7,37.2
		C274.9,67.4,275,67.6,275.2,67.6z"/>
	<path class="st0" d="M342.3,15.6h7.9c0.7,0,1,0.4,1,1v71.3c0,0.7-0.4,1-1,1h-9c-0.6,0-0.9-0.3-1.2-0.8l-17.8-47.9
		c-0.1-0.1-0.2-0.2-0.3-0.2c-0.1,0-0.2,0.1-0.2,0.3l0.1,47.6c0,0.7-0.4,1-1,1h-8c-0.7,0-1-0.3-1-1V16.6c0-0.7,0.3-1,1-1h8.9
		c0.6,0,0.9,0.3,1.2,0.8l17.9,47.9c0.1,0.2,0.2,0.3,0.3,0.3c0.1,0,0.2-0.2,0.2-0.4V16.6C341.2,15.9,341.6,15.6,342.3,15.6z"/>
	<path class="st0" d="M364.2,87.9V16.6c0-0.7,0.3-1,1-1h17.2c5.8,0,10.4,1.8,13.8,5.3c3.4,3.6,5.1,8.4,5.1,14.5v33.8
		c0,6.1-1.7,10.9-5.1,14.5c-3.4,3.6-8,5.3-13.8,5.3h-17.2C364.6,88.9,364.2,88.6,364.2,87.9z M374.7,80.2l7.7-0.1
		c2.7,0,4.8-1,6.4-3.1c1.6-2.1,2.4-4.9,2.5-8.4V35.9c0-3.6-0.8-6.4-2.4-8.5c-1.6-2.1-3.8-3.1-6.5-3.1h-7.7c-0.3,0-0.4,0.1-0.4,0.4
		v55.1C374.3,80.1,374.4,80.2,374.7,80.2z"/>
	<path class="st0" d="M441.3,88.1l-9.6-31.2c-0.1-0.2-0.2-0.3-0.4-0.3h-7.3c-0.3,0-0.4,0.1-0.4,0.4v30.9c0,0.7-0.4,1-1,1h-8
		c-0.7,0-1-0.3-1-1V16.6c0-0.7,0.3-1,1-1h18.8c3.6,0,6.7,0.9,9.4,2.6c2.7,1.7,4.8,4.2,6.3,7.4c1.5,3.2,2.3,6.8,2.3,10.9
		c0,4.4-0.9,8.2-2.7,11.5c-1.8,3.3-4.3,5.6-7.4,7.1c-0.2,0.2-0.3,0.4-0.2,0.6l10.7,32.2l0.1,0.4c0,0.5-0.3,0.7-0.9,0.7h-8.2
		C441.9,88.9,441.5,88.7,441.3,88.1z M423.4,24.7v23.5c0,0.3,0.1,0.4,0.4,0.4h7.8c2.9,0,5.2-1.1,6.9-3.3c1.7-2.2,2.6-5.1,2.6-8.8
		c0-3.8-0.9-6.8-2.6-9c-1.7-2.2-4.1-3.3-6.9-3.3h-7.8C423.6,24.3,423.4,24.4,423.4,24.7z"/>
	<path class="st0" d="M494.9,24.3h-23.6c-0.3,0-0.4,0.1-0.4,0.4v22.8c0,0.3,0.1,0.4,0.4,0.4h14.5c0.7,0,1,0.4,1,1v6.6
		c0,0.7-0.3,1-1,1h-14.5c-0.3,0-0.4,0.1-0.4,0.4v22.9c0,0.3,0.1,0.4,0.4,0.4h23.6c0.7,0,1,0.4,1,1v6.6c0,0.7-0.4,1-1,1h-33
		c-0.7,0-1-0.3-1-1V16.6c0-0.7,0.3-1,1-1h33c0.7,0,1,0.4,1,1v6.6C496,23.9,495.6,24.3,494.9,24.3z"/>
	<path class="st0" d="M535.9,88l-2.3-12.1c0-0.1-0.1-0.2-0.2-0.3c-0.1-0.1-0.2-0.1-0.4-0.1H516c-0.1,0-0.3,0-0.4,0.1
		c-0.1,0.1-0.2,0.2-0.2,0.3L513.3,88c-0.1,0.6-0.5,0.9-1.2,0.9h-8c-0.3,0-0.6-0.1-0.8-0.3c-0.2-0.2-0.2-0.5-0.2-0.8l15.6-71.3
		c0.1-0.6,0.5-0.9,1.2-0.9h9.3c0.7,0,1.1,0.3,1.2,0.9l15.7,71.3V88c0,0.6-0.3,0.9-0.9,0.9h-8.2C536.5,88.9,536.1,88.6,535.9,88z
		 M517.6,67.6h13.9c0.2,0,0.3-0.1,0.3-0.4l-7.1-37.2c-0.1-0.1-0.1-0.2-0.2-0.2s-0.1,0.1-0.2,0.2l-7,37.2
		C517.3,67.4,517.4,67.6,517.6,67.6z"/>
	<path class="st0" d="M298.7,164.6c-3.6,3.5-8.3,5.2-14.2,5.2H267c-0.7,0-1-0.3-1-1V97.5c0-0.7,0.3-1,1-1h16c6.4,0,11.3,1.7,14.9,5
		c3.6,3.3,5.4,8.2,5.4,14.5c0,7.5-2.7,12.8-8.1,15.6c-0.4,0.2-0.4,0.4-0.1,0.5c2.8,1.7,5,4,6.6,7c1.6,3,2.4,6.6,2.4,10.7
		C304.1,156.2,302.3,161.1,298.7,164.6z M276,105.6v22.2c0,0.3,0.1,0.4,0.4,0.4h6.7c3.3,0,5.8-1,7.7-3c1.8-2,2.7-4.8,2.7-8.3
		c0-3.7-0.9-6.6-2.7-8.6c-1.8-2.1-4.4-3.1-7.7-3.1h-6.7C276.2,105.2,276,105.3,276,105.6z M291.3,157.8c1.9-2.2,2.8-5.2,2.8-9.2
		c0-4.1-0.9-7.2-2.7-9.5c-1.8-2.3-4.3-3.4-7.5-3.4h-7.3c-0.3,0-0.4,0.1-0.4,0.4v24.5c0,0.3,0.1,0.4,0.4,0.4h7.2
		C286.9,161.1,289.4,160,291.3,157.8z"/>
	<path class="st0" d="M313.8,168.8V97.5c0-0.7,0.3-1,1-1h8c0.7,0,1,0.4,1,1v71.3c0,0.7-0.4,1-1,1h-8
		C314.1,169.9,313.8,169.5,313.8,168.8z"/>
	<path class="st0" d="M339.4,165.5c-3.4-3.5-5.1-8-5.1-13.6v-2.7c0-0.7,0.3-1,1-1h7.8c0.7,0,1,0.4,1,1v2.2c0,3.2,0.8,5.8,2.4,7.7
		c1.6,1.9,3.7,2.9,6.2,2.9c2.5,0,4.6-0.9,6.2-2.8c1.6-1.9,2.5-4.3,2.5-7.3c0-2-0.4-3.8-1.3-5.3c-0.9-1.5-2-2.9-3.5-4.1
		c-1.4-1.2-3.8-3-7-5.4c-3.6-2.7-6.4-4.9-8.4-6.8c-2-1.9-3.7-4.2-5.1-6.8c-1.4-2.7-2.1-5.8-2.1-9.3c0-5.7,1.7-10.2,5-13.5
		c3.4-3.3,7.7-5,13.1-5c5.6,0,10.1,1.8,13.5,5.3c3.4,3.6,5.1,8.2,5.1,14v2.6c0,0.7-0.4,1-1,1H362c-0.7,0-1-0.3-1-1v-2.8
		c0-3.1-0.8-5.7-2.4-7.6c-1.6-1.9-3.7-2.9-6.3-2.9c-2.4,0-4.4,0.9-6,2.6c-1.5,1.7-2.3,4.1-2.3,7.2c0,2.8,0.8,5.2,2.3,7.1
		c1.5,1.9,4.5,4.5,8.9,7.7c4.2,3.1,7.4,5.7,9.5,7.7c2.1,2,3.8,4.1,4.9,6.4c1.2,2.3,1.7,5.1,1.7,8.3c0,5.9-1.7,10.6-5.1,14.1
		c-3.4,3.5-7.9,5.3-13.4,5.3C347.3,170.7,342.8,169,339.4,165.5z"/>
	<path class="st0" d="M414.9,105.2h-23.6c-0.3,0-0.4,0.1-0.4,0.4v22.8c0,0.3,0.1,0.4,0.4,0.4h14.5c0.7,0,1,0.4,1,1v6.6
		c0,0.7-0.4,1-1,1h-14.5c-0.3,0-0.4,0.1-0.4,0.4v22.9c0,0.3,0.1,0.4,0.4,0.4h23.6c0.7,0,1,0.4,1,1v6.6c0,0.7-0.4,1-1,1h-33
		c-0.7,0-1-0.3-1-1V97.5c0-0.7,0.3-1,1-1h33c0.7,0,1,0.4,1,1v6.6C416,104.8,415.6,105.2,414.9,105.2z"/>
	<path class="st0" d="M429.9,165.7c-3.5-3.4-5.2-7.8-5.2-13.3V114c0-5.5,1.7-10,5.2-13.3c3.5-3.4,8-5,13.7-5c5.7,0,10.2,1.7,13.7,5
		c3.5,3.4,5.2,7.8,5.2,13.4v4.4c0,0.7-0.4,1-1,1h-8c-0.7,0-1-0.3-1-1v-4.6c0-2.9-0.8-5.2-2.5-6.9c-1.6-1.7-3.8-2.6-6.4-2.6
		c-2.7,0-4.8,0.9-6.4,2.6c-1.6,1.7-2.5,4.1-2.5,6.9v38.6c0,2.9,0.8,5.2,2.5,6.9c1.6,1.7,3.8,2.6,6.4,2.6c2.7,0,4.8-0.9,6.4-2.6
		c1.6-1.7,2.5-4.1,2.5-6.9v-11.5c0-0.3-0.1-0.4-0.4-0.4h-8c-0.7,0-1-0.3-1-1V133c0-0.7,0.3-1,1-1h17.4c0.7,0,1,0.4,1,1v19.4
		c0,5.5-1.7,10-5.2,13.3c-3.5,3.4-8.1,5-13.7,5C437.9,170.7,433.3,169,429.9,165.7z"/>
	<path class="st0" d="M504.7,96.5h7.9c0.7,0,1,0.4,1,1v71.3c0,0.7-0.4,1-1,1h-9c-0.6,0-0.9-0.3-1.2-0.8l-17.8-47.9
		c-0.1-0.1-0.2-0.2-0.3-0.2c-0.1,0-0.2,0.1-0.2,0.3l0.1,47.6c0,0.7-0.4,1-1,1h-8c-0.7,0-1-0.3-1-1V97.5c0-0.7,0.3-1,1-1h8.9
		c0.6,0,0.9,0.3,1.2,0.8l17.9,47.9c0.1,0.2,0.2,0.3,0.3,0.3c0.1,0,0.2-0.2,0.2-0.4V97.5C503.6,96.8,504,96.5,504.7,96.5z"/>
	<path class="st0" d="M554.2,168.9l-2.3-12.1c0-0.1-0.1-0.2-0.2-0.3c-0.1-0.1-0.2-0.1-0.4-0.1h-17.1c-0.1,0-0.3,0-0.4,0.1
		c-0.1,0.1-0.2,0.2-0.2,0.3l-2.2,12.1c-0.1,0.6-0.5,0.9-1.2,0.9h-8c-0.3,0-0.6-0.1-0.8-0.3c-0.2-0.2-0.2-0.5-0.2-0.8l15.6-71.3
		c0.1-0.6,0.5-0.9,1.2-0.9h9.3c0.7,0,1.1,0.3,1.2,0.9l15.7,71.3v0.2c0,0.6-0.3,0.9-0.9,0.9h-8.2
		C554.7,169.9,554.3,169.6,554.2,168.9z M535.8,148.5h13.9c0.2,0,0.3-0.1,0.3-0.4l-7.1-37.2c-0.1-0.1-0.1-0.2-0.2-0.2
		s-0.1,0.1-0.2,0.2l-7,37.2C535.5,148.3,535.6,148.5,535.8,148.5z"/>
</g>
<rect x="234.4" y="15.6" class="st0" width="2.2" height="155.2"/>
</svg>
